<?xml version="1.0" standalone="no"?>
<!DOCTYPE svg PUBLIC "-//W3C//DTD SVG 20010904//EN"
 "http://www.w3.org/TR/2001/REC-SVG-20010904/DTD/svg10.dtd">
<svg version="1.0" xmlns="http://www.w3.org/2000/svg"
 width="127.000000pt" height="127.000000pt" viewBox="0 0 127.000000 127.000000"
 preserveAspectRatio="xMidYMid meet">
<metadata>
Created by potrace 1.11, written by Peter Selinger 2001-2013
</metadata>
<g transform="translate(0.000000,127.000000) scale(0.100000,-0.100000)"
fill="#000000" stroke="none">
<path d="M555 1250 c-72 -18 -173 -63 -216 -95 -26 -19 -24 -18 36 9 150 69
306 53 401 -42 82 -82 110 -211 76 -360 -12 -52 -7 -72 21 -93 85 -62 283
-191 298 -194 26 -5 44 26 59 99 43 211 -11 410 -147 543 -102 100 -205 143
-358 148 -74 3 -119 -1 -170 -15z"/>
<path d="M459 1162 c-124 -33 -241 -124 -326 -255 -59 -90 -82 -157 -79 -228
3 -63 35 -131 77 -162 27 -19 103 -39 124 -31 6 3 16 32 22 66 44 230 272 439
481 440 34 0 62 2 62 5 0 16 -44 84 -72 111 -69 65 -173 85 -289 54z"/>
<path d="M675 783 c-52 -113 -119 -191 -220 -258 -90 -59 -207 -84 -282 -62
-71 22 -132 96 -147 181 -11 61 -19 34 -22 -77 -3 -125 9 -172 56 -235 126
-166 406 -151 625 33 92 78 99 78 185 3 l44 -39 18 23 c42 53 98 144 98 159 0
8 -44 45 -99 83 -111 74 -128 100 -112 169 9 38 9 38 -37 67 -26 16 -52 30
-59 30 -7 0 -28 -34 -48 -77z"/>
<path d="M754 379 c-16 -10 -51 -37 -79 -59 -171 -139 -400 -173 -552 -84 -24
14 -43 22 -43 18 0 -3 14 -25 32 -48 144 -186 368 -250 604 -171 88 29 202 96
251 147 l32 33 -91 80 c-127 112 -119 107 -154 84z"/>
</g>
</svg>
